<mxfile host="app.diagrams.net" agent="Mozilla/5.0 (Windows NT 10.0; Win64; x64) AppleWebKit/537.36 (KHTML, like Gecko) Chrome/129.0.0.0 Safari/537.36" version="24.7.17">
  <diagram name="Halaman-1" id="Oc290DPsFyoBL_PvaZTU">
    <mxGraphModel grid="1" page="1" gridSize="10" guides="1" tooltips="1" connect="1" arrows="1" fold="1" pageScale="1" pageWidth="827" pageHeight="1169" math="0" shadow="0">
      <root>
        <mxCell id="0" />
        <mxCell id="1" parent="0" />
        <mxCell id="Sk0xfnDvxFsgeDueO7yl-1" value="&lt;font size=&quot;3&quot; face=&quot;Comic Sans MS&quot;&gt;Start&lt;/font&gt;" style="rounded=1;whiteSpace=wrap;html=1;" vertex="1" parent="1">
          <mxGeometry x="360" y="10" width="120" height="60" as="geometry" />
        </mxCell>
        <mxCell id="Sk0xfnDvxFsgeDueO7yl-2" value="" style="endArrow=classic;html=1;rounded=0;" edge="1" parent="1">
          <mxGeometry width="50" height="50" relative="1" as="geometry">
            <mxPoint x="419.5" y="70" as="sourcePoint" />
            <mxPoint x="419.5" y="110" as="targetPoint" />
          </mxGeometry>
        </mxCell>
        <mxCell id="Sk0xfnDvxFsgeDueO7yl-3" value="&lt;font face=&quot;Comic Sans MS&quot;&gt;Nilai awal pada seven segment diatur&amp;nbsp;&lt;/font&gt;&lt;div&gt;&lt;font face=&quot;Comic Sans MS&quot;&gt;menjadi&amp;nbsp;&lt;/font&gt;&lt;span style=&quot;font-family: &amp;quot;Comic Sans MS&amp;quot;; background-color: initial;&quot;&gt;0&lt;/span&gt;&lt;/div&gt;" style="shape=parallelogram;perimeter=parallelogramPerimeter;whiteSpace=wrap;html=1;fixedSize=1;" vertex="1" parent="1">
          <mxGeometry x="340" y="110" width="160" height="60" as="geometry" />
        </mxCell>
        <mxCell id="Sk0xfnDvxFsgeDueO7yl-7" value="" style="endArrow=classic;html=1;rounded=0;" edge="1" parent="1">
          <mxGeometry width="50" height="50" relative="1" as="geometry">
            <mxPoint x="419.5" y="170" as="sourcePoint" />
            <mxPoint x="419.5" y="210" as="targetPoint" />
          </mxGeometry>
        </mxCell>
        <mxCell id="Sk0xfnDvxFsgeDueO7yl-9" value="&lt;font face=&quot;Comic Sans MS&quot;&gt;&lt;span style=&quot;font-size: 10px;&quot;&gt;Angka pada seven&amp;nbsp;&lt;/span&gt;&lt;/font&gt;&lt;div&gt;&lt;font face=&quot;Comic Sans MS&quot;&gt;&lt;span style=&quot;font-size: 10px;&quot;&gt;segment ditampilkan sesuai dengan nilai yang ada&lt;/span&gt;&lt;/font&gt;&lt;/div&gt;" style="strokeWidth=2;html=1;shape=mxgraph.flowchart.display;whiteSpace=wrap;" vertex="1" parent="1">
          <mxGeometry x="340" y="210" width="140" height="70" as="geometry" />
        </mxCell>
        <mxCell id="Sk0xfnDvxFsgeDueO7yl-10" value="" style="endArrow=classic;html=1;rounded=0;" edge="1" parent="1">
          <mxGeometry width="50" height="50" relative="1" as="geometry">
            <mxPoint x="419.64" y="280" as="sourcePoint" />
            <mxPoint x="419.64" y="320" as="targetPoint" />
          </mxGeometry>
        </mxCell>
        <mxCell id="Sk0xfnDvxFsgeDueO7yl-12" value="&lt;font face=&quot;Comic Sans MS&quot;&gt;Nilai pada seven segment ditambah 1&lt;/font&gt;" style="rounded=0;whiteSpace=wrap;html=1;" vertex="1" parent="1">
          <mxGeometry x="360" y="320" width="120" height="60" as="geometry" />
        </mxCell>
        <mxCell id="Sk0xfnDvxFsgeDueO7yl-14" value="" style="endArrow=classic;html=1;rounded=0;" edge="1" parent="1">
          <mxGeometry width="50" height="50" relative="1" as="geometry">
            <mxPoint x="419.64" y="380" as="sourcePoint" />
            <mxPoint x="419.64" y="420" as="targetPoint" />
          </mxGeometry>
        </mxCell>
        <mxCell id="Sk0xfnDvxFsgeDueO7yl-15" value="&lt;font face=&quot;Comic Sans MS&quot;&gt;Apakah&amp;nbsp;&lt;/font&gt;&lt;div&gt;&lt;font face=&quot;Comic Sans MS&quot;&gt;nilai &amp;gt; 9?&lt;/font&gt;&lt;/div&gt;" style="rhombus;whiteSpace=wrap;html=1;" vertex="1" parent="1">
          <mxGeometry x="380" y="420" width="80" height="80" as="geometry" />
        </mxCell>
        <mxCell id="Sk0xfnDvxFsgeDueO7yl-16" value="" style="endArrow=classic;html=1;rounded=0;" edge="1" parent="1">
          <mxGeometry width="50" height="50" relative="1" as="geometry">
            <mxPoint x="419.64" y="500" as="sourcePoint" />
            <mxPoint x="419.64" y="540" as="targetPoint" />
          </mxGeometry>
        </mxCell>
        <mxCell id="Sk0xfnDvxFsgeDueO7yl-17" value="&lt;font face=&quot;Comic Sans MS&quot;&gt;End&lt;/font&gt;" style="rounded=1;whiteSpace=wrap;html=1;" vertex="1" parent="1">
          <mxGeometry x="360" y="540" width="120" height="60" as="geometry" />
        </mxCell>
      </root>
    </mxGraphModel>
  </diagram>
</mxfile>
